<svg width="954" height="811" viewBox="0 0 954 811" fill="none" xmlns="http://www.w3.org/2000/svg">
<path d="M155.467 776.209C94.4147 778.5 1 801 1 801V0H954V740.017C954 740.017 846.31 793.292 673.599 754.856C578.272 733.641 479.067 826.326 381.693 808.24C241.894 782.275 244.632 772.864 155.467 776.209Z" fill="url(#paint0_linear)"/>
<path d="M873.066 172.57C932.957 131.706 954 0.282166 954 0.282166H0.977905V265.776V531.27C0.977905 531.27 100.209 414.846 172.476 367.613C255.897 313.089 403.259 396.377 491.147 367.613C580.044 338.518 548.182 238.297 637.103 209.411C723.769 181.258 791.312 228.351 873.066 172.57Z" fill="url(#paint1_linear)"/>
<defs>
<linearGradient id="paint0_linear" x1="1" y1="405.298" x2="954" y2="405.298" gradientUnits="userSpaceOnUse">
<stop stop-color="#7C74FE"/>
<stop offset="0.48" stop-color="#5753C9"/>
<stop offset="1" stop-color="#6E7FF3"/>
</linearGradient>
<linearGradient id="paint1_linear" x1="0.977905" y1="265.776" x2="954" y2="265.776" gradientUnits="userSpaceOnUse">
<stop stop-color="white"/>
<stop offset="0.0001" stop-color="#5753C9"/>
<stop offset="1" stop-color="#6E7FF3"/>
</linearGradient>
</defs>
</svg>
