<svg width="65" height="63" viewBox="0 0 65 63" fill="none" xmlns="http://www.w3.org/2000/svg">
<circle cx="13.1765" cy="11.5294" r="5.08824" stroke="white" stroke-width="3"/>
<circle cx="6.58824" cy="42.8235" r="5.08824" stroke="white" stroke-width="3"/>
<circle cx="52.5882" cy="6.58824" r="5.08824" stroke="white" stroke-width="3"/>
<line x1="11.3417" y1="16.8176" x2="6.4593" y2="37.3471" stroke="white" stroke-width="3"/>
<line x1="52.4918" y1="11.843" x2="56.4918" y2="49.843" stroke="white" stroke-width="3"/>
<path d="M48 8L18.3945 11.835" stroke="white" stroke-width="3"/>
<path d="M53 54L11 45.2493" stroke="white" stroke-width="3"/>
<circle cx="57.5882" cy="55.5882" r="5.08824" stroke="white" stroke-width="3"/>
<path d="M29.9115 41.882L32.2555 42.4419L33.424 37.5495L36.7505 38.344L37.9552 43.8032L40.6105 44.4374L39.2917 38.5088C40.1744 38.3427 40.8971 37.943 41.4596 37.3096C42.0221 36.6763 42.4164 35.8863 42.6425 34.9396C42.9197 33.7789 42.8641 32.7204 42.4757 31.764C42.0952 30.8026 41.318 30.0824 40.1438 29.6032C39.97 29.5274 39.7769 29.4607 39.5645 29.4031C39.3536 29.339 39.18 29.2907 39.0439 29.2582L33.2566 27.876L29.9115 41.882ZM33.9467 35.3611L35.0757 30.634L38.4216 31.4331C38.5513 31.4641 38.6956 31.5054 38.8546 31.5571C39.0137 31.6088 39.1574 31.6671 39.2858 31.7321C39.6516 31.9223 39.9146 32.1701 40.0746 32.4757C40.2427 32.7763 40.335 33.093 40.3515 33.426C40.3744 33.7604 40.3502 34.0768 40.279 34.3751C40.2077 34.6734 40.0863 34.9665 39.9147 35.2545C39.7496 35.5441 39.5241 35.785 39.2383 35.9772C38.959 36.1709 38.6132 36.27 38.2009 36.2743C38.0555 36.2807 37.9001 36.271 37.7349 36.2453C37.5697 36.2195 37.4223 36.1912 37.2926 36.1602L33.9467 35.3611Z" fill="white"/>
<path d="M20.4 36H22.81V30.97H26.35C26.4833 30.97 26.66 30.9633 26.88 30.95C27.1067 30.9367 27.3133 30.9167 27.5 30.89C28.74 30.6967 29.66 30.18 30.26 29.34C30.8667 28.4933 31.17 27.4767 31.17 26.29C31.17 25.0967 30.87 24.08 30.27 23.24C29.6767 22.3933 28.7533 21.8733 27.5 21.68C27.3133 21.6467 27.11 21.6267 26.89 21.62C26.67 21.6067 26.49 21.6 26.35 21.6H20.4V36ZM22.81 28.72V23.86H26.25C26.3833 23.86 26.5333 23.8667 26.7 23.88C26.8667 23.8933 27.02 23.9167 27.16 23.95C27.56 24.05 27.8733 24.23 28.1 24.49C28.3333 24.7433 28.4967 25.03 28.59 25.35C28.69 25.67 28.74 25.9833 28.74 26.29C28.74 26.5967 28.69 26.91 28.59 27.23C28.4967 27.55 28.3333 27.8367 28.1 28.09C27.8733 28.3433 27.56 28.52 27.16 28.62C27.02 28.66 26.8667 28.6867 26.7 28.7C26.5333 28.7133 26.3833 28.72 26.25 28.72H22.81Z" fill="white"/>
</svg>
