<svg width="72" height="72" viewBox="0 0 72 72" fill="none" xmlns="http://www.w3.org/2000/svg">
<path d="M36 72C55.8823 72 72 55.8823 72 36C72 16.1177 55.8823 0 36 0C16.1177 0 0 16.1177 0 36C0 55.8823 16.1177 72 36 72Z" fill="url(#paint0_linear)"/>
<path fill-rule="evenodd" clip-rule="evenodd" d="M58.9774 30.875C57.6032 22.4884 50.4332 16.2493 41.884 16.0008C41.0282 15.9812 40.2028 16.3155 39.6048 16.9239C39.0272 17.5191 38.7282 18.3282 38.7808 19.1533L39.6574 32.2334C39.7942 33.8844 41.1808 35.156 42.8482 35.1596H43.0586L56.2074 34.2888C56.997 34.244 57.7358 33.8876 58.2594 33.2986C58.7828 32.7098 59.0478 31.9376 58.995 31.1536V30.875H58.9774ZM42.8482 32.0244L41.9716 19.1707C48.8502 19.448 54.6102 24.4386 55.8218 31.171L42.8482 32.0244ZM48.5986 40.9768C48.845 40.1424 49.7164 39.6554 50.5622 39.8796C50.977 39.978 51.3342 40.239 51.5522 40.6032C51.7702 40.9674 51.8304 41.4038 51.7194 41.8128C50.5286 46.1302 47.6244 49.7822 43.6722 51.9322C38.8226 54.6026 32.9513 54.6916 28.022 52.1696C23.0926 49.6476 19.7558 44.8474 19.1277 39.3744C19.0259 38.7354 18.9848 38.088 19.005 37.4412C18.9965 29.5986 24.5312 22.8275 32.259 21.2259C33.1305 21.0528 33.9782 21.6142 34.1525 22.48C34.3268 23.3457 33.7616 24.1879 32.8902 24.361C26.6529 25.6791 22.1982 31.1584 22.2133 37.4934C22.1988 37.9886 22.2281 38.484 22.301 38.9738C23.0703 45.299 28.2285 50.2042 34.6229 50.6912C41.0172 51.1782 46.8678 47.1116 48.5986 40.9768Z" fill="white"/>
<defs>
<linearGradient id="paint0_linear" x1="0" y1="0" x2="71.6976" y2="71.6976" gradientUnits="userSpaceOnUse">
<stop offset="0.520833" stop-color="#5753C9"/>
<stop offset="0.9375" stop-color="#2AB6D9"/>
</linearGradient>
</defs>
</svg>
